<svg xmlns="http://www.w3.org/2000/svg" width="24" height="24" fill="none"><path d="M11.2.025C7.677.288 4.536 1.991 2.412 4.79 1.198 6.39.443 8.216.109 10.359c-.122.784-.122 2.498 0 3.282.513 3.291 2.105 5.992 4.684 7.949 1.593 1.209 3.429 1.968 5.566 2.301.784.122 2.498.122 3.282 0 2.916-.455 5.395-1.769 7.255-3.848 1.649-1.843 2.602-3.88 2.995-6.402.122-.784.122-2.498 0-3.282-.333-2.137-1.092-3.973-2.301-5.566C19.606 2.178 16.77.532 13.5.099c-.468-.062-1.86-.106-2.3-.074m2.12 3.076a8.623 8.623 0 0 1 2.624.822c2.683 1.31 4.504 3.803 4.962 6.797.097.634.097 1.926 0 2.56-.4 2.611-1.827 4.837-4.026 6.28-.809.53-2.006 1.029-2.972 1.237-4.048.872-8.186-1.141-9.988-4.857-.64-1.319-.897-2.447-.897-3.94 0-1.493.257-2.621.897-3.94a8.948 8.948 0 0 1 4.14-4.142c1.031-.503 1.966-.758 3.28-.894.322-.033 1.571.015 1.98.077" fill="#35C8FF" fill-rule="evenodd"/></svg>